<svg width="100" height="100" viewBox="0 0 100 100" fill="none" xmlns="http://www.w3.org/2000/svg">
<path d="M68.5 71H32.5L28 81.5C27 84.5 23.1056 89 19.5 89C13.5 89 10.5 82.6667 11 79L18 42C18 30.5 28 29.7917 30.5 30C36.5 30.5 40.8334 35.3333 41 38H57.5C57.6667 35.5 60.1 30.5 68.5 30.5C76.9 30.5 80.6667 38.1667 81.5 42L88.5 79C89 81.5 91.6 87.6 86 90C80.4 92.4 76.3333 87.3333 75 84.5L68.5 71Z" fill="#D9D9D9"/>
<path d="M68.5 71H32.5L28 81.5C27 84.5 23.1056 89 19.5 89C13.5 89 10.5 82.6667 11 79L18 42C18 30.5 28 29.7917 30.5 30C36.5 30.5 40.8334 35.3333 41 38H57.5C57.6667 35.5 60.1 30.5 68.5 30.5C76.9 30.5 80.6667 38.1667 81.5 42L88.5 79C89 81.5 91.6 87.6 86 90C80.4 92.4 76.3333 87.3333 75 84.5L68.5 71Z" fill="#BE3840"/>
<path d="M68.5 71H32.5L28 81.5C27 84.5 23.1056 89 19.5 89C13.5 89 10.5 82.6667 11 79L18 42C18 30.5 28 29.7917 30.5 30C36.5 30.5 40.8334 35.3333 41 38H57.5C57.6667 35.5 60.1 30.5 68.5 30.5C76.9 30.5 80.6667 38.1667 81.5 42L88.5 79C89 81.5 91.6 87.6 86 90C80.4 92.4 76.3333 87.3333 75 84.5L68.5 71Z" stroke="black"/>
<circle cx="36" cy="68" r="5" fill="white" stroke="black" stroke-width="2"/>
<circle cx="65" cy="68" r="5" fill="white" stroke="black" stroke-width="2"/>
<rect x="27" y="36" width="4" height="13" rx="1" fill="white"/>
<rect x="35.5" y="40.5" width="4" height="13" rx="1" transform="rotate(90 35.5 40.5)" fill="white"/>
<circle cx="69" cy="37" r="2" fill="#D9D9D9"/>
<circle cx="69" cy="47" r="2" fill="#D9D9D9"/>
<circle cx="74" cy="42" r="2" fill="#D9D9D9"/>
<circle cx="64" cy="42" r="2" fill="#D9D9D9"/>
<path d="M71 5L41 17.871V29.3871L70.7957 17.871L71 5Z" fill="black"/>
<path d="M41 67.3226V29.3871M70 68L70.7957 17.871M41 29.3871V17.871C52.7157 12.8445 59.2843 10.0264 71 5L70.7957 17.871M41 29.3871L70.7957 17.871" stroke="black" stroke-width="2"/>
<path d="M50.356 54.058C50.5147 54.0487 50.6547 54.0813 50.776 54.156C50.8973 54.2307 50.958 54.3287 50.958 54.45C50.958 54.6553 50.7993 54.786 50.482 54.842C50.3887 54.8513 50.2393 54.8747 50.034 54.912C49.8287 54.94 49.698 54.9587 49.642 54.968C49.586 54.9773 49.4833 54.996 49.334 55.024C49.194 55.052 49.0727 55.0847 48.97 55.122C48.8673 55.15 48.732 55.1873 48.564 55.234C48.396 55.2807 48.2093 55.3367 48.004 55.402C47.4627 55.57 47.0987 55.7147 46.912 55.836C46.5107 56.0973 46.31 56.4753 46.31 56.97C46.31 57.4273 46.282 57.7493 46.226 57.936C45.9273 57.8893 45.7407 57.712 45.666 57.404C45.5727 57.012 45.4653 56.746 45.344 56.606C45.3253 56.5873 45.288 56.5547 45.232 56.508C45.1853 56.4613 45.1573 56.4333 45.148 56.424C45.1387 56.4147 45.1153 56.3913 45.078 56.354C45.05 56.3167 45.036 56.2933 45.036 56.284C45.036 56.2653 45.0267 56.242 45.008 56.214C44.9893 56.186 44.9847 56.1673 44.994 56.158C45.0033 56.1393 45.008 56.116 45.008 56.088C45.0173 56.06 45.0267 56.0367 45.036 56.018C45.0547 55.99 45.0733 55.962 45.092 55.934C45.12 55.8967 45.1527 55.8593 45.19 55.822C45.2087 55.794 45.2413 55.7567 45.288 55.71C45.3347 55.6633 45.3627 55.6353 45.372 55.626C45.3813 55.6073 45.4 55.584 45.428 55.556C45.456 55.5187 45.47 55.486 45.47 55.458C45.4793 55.43 45.4933 55.3927 45.512 55.346C45.5307 55.2993 45.5493 55.2433 45.568 55.178C45.6707 54.7393 45.5773 54.5153 45.288 54.506C45.1013 54.4967 44.966 54.408 44.882 54.24C44.798 54.072 44.8307 53.932 44.98 53.82C45.1107 53.7267 45.2133 53.6427 45.288 53.568C45.3627 53.4933 45.4327 53.386 45.498 53.246C45.5727 53.106 45.6147 52.9473 45.624 52.77C45.652 52.3593 45.778 52.0933 46.002 51.972C46.0207 51.9907 46.044 52.014 46.072 52.042C46.1093 52.0607 46.1327 52.0793 46.142 52.098C46.1607 52.1167 46.184 52.14 46.212 52.168C46.24 52.1867 46.2587 52.21 46.268 52.238C46.2867 52.266 46.3053 52.3033 46.324 52.35C46.3427 52.3967 46.3613 52.448 46.38 52.504L46.562 53.064C46.674 53.0267 46.828 52.966 47.024 52.882C47.2293 52.7887 47.4067 52.7047 47.556 52.63C47.7147 52.5553 47.9013 52.4807 48.116 52.406C48.34 52.322 48.5313 52.2613 48.69 52.224C48.858 52.1867 49.0447 52.1633 49.25 52.154C49.4647 52.1447 49.6467 52.1727 49.796 52.238C49.908 52.2753 50.006 52.3687 50.09 52.518C49.782 52.714 49.2407 52.9427 48.466 53.204C47.7007 53.456 47.1827 53.6473 46.912 53.778C46.3893 54.03 46.198 54.4593 46.338 55.066C46.7673 55.01 47.4253 54.8373 48.312 54.548C49.1987 54.2587 49.88 54.0953 50.356 54.058Z" fill="white"/>
<path d="M51.6519 56.69C51.6519 56.494 51.6612 56.256 51.6799 55.976C51.7079 55.696 51.7359 55.4533 51.7639 55.248C51.7919 55.0427 51.7965 54.8327 51.7779 54.618C51.7685 54.394 51.7265 54.212 51.6519 54.072C51.5865 53.9227 51.5492 53.792 51.5399 53.68C51.5399 53.5587 51.5539 53.456 51.5819 53.372C51.6192 53.288 51.6565 53.176 51.6939 53.036C51.7312 52.8867 51.7499 52.7327 51.7499 52.574C51.7499 52.294 51.7545 52.126 51.7639 52.07C52.0905 52.07 52.3099 52.1587 52.4219 52.336C52.4405 52.364 52.5152 52.6067 52.6459 53.064C52.6645 53.064 53.0752 52.9567 53.8779 52.742C54.6805 52.518 55.1892 52.406 55.4039 52.406C55.6745 52.406 55.8565 52.448 55.9499 52.532C56.0432 52.6067 56.0899 52.7607 56.0899 52.994C56.0899 53.1433 56.0432 53.2787 55.9499 53.4C55.8565 53.5213 55.7119 53.6567 55.5159 53.806C55.3292 53.9553 55.2219 54.044 55.1939 54.072C55.2685 54.0813 55.6419 54.0953 56.3139 54.114C56.7525 54.1327 57.0745 54.226 57.2799 54.394C57.4945 54.5527 57.6019 54.8187 57.6019 55.192C57.6019 55.4813 57.4992 55.7473 57.2939 55.99C57.0979 56.2327 56.8692 56.424 56.6079 56.564C56.3559 56.704 56.0665 56.83 55.7399 56.942C55.6745 56.97 55.4179 57.0727 54.9699 57.25C54.5219 57.418 54.1159 57.5627 53.7519 57.684C53.3879 57.796 53.1312 57.8427 52.9819 57.824C52.9539 57.8893 52.8979 57.9267 52.8139 57.936C52.7392 57.936 52.6832 57.8987 52.6459 57.824C52.4405 57.8707 52.3099 57.894 52.2539 57.894C52.1139 57.894 52.0019 57.866 51.9179 57.81C51.8432 57.7447 51.7872 57.642 51.7499 57.502C51.7125 57.362 51.6892 57.2453 51.6799 57.152C51.6705 57.0493 51.6612 56.8953 51.6519 56.69ZM54.5359 53.512C53.9665 53.4467 53.4812 53.5493 53.0799 53.82C52.6785 54.0813 52.5339 54.4593 52.6459 54.954C52.7859 54.8887 53.0052 54.7393 53.3039 54.506C53.6119 54.2633 53.8872 54.0393 54.1299 53.834C54.3725 53.6287 54.5079 53.5213 54.5359 53.512ZM56.9579 55.066C56.6219 54.9447 56.2392 54.8793 55.8099 54.87C55.3899 54.8513 54.9745 54.898 54.5639 55.01C54.1625 55.1127 53.7985 55.2573 53.4719 55.444C53.1452 55.6307 52.8932 55.878 52.7159 56.186C52.5385 56.4847 52.4779 56.8113 52.5339 57.166C54.7925 56.7647 56.2672 56.0647 56.9579 55.066Z" fill="white"/>
</svg>
