<svg width="100" height="100" viewBox="0 0 100 100" fill="none" xmlns="http://www.w3.org/2000/svg">
<rect width="100" height="100" rx="9" fill="#ECECEC"/>
<path d="M78.5989 52.2281C67.2933 40.8548 83.3096 28.9646 92.7309 24.4411C13.0535 9.44905 9.28495 53.5205 17.3604 77.4303C14.6686 45.3783 57.0645 47.2739 78.5989 52.2281Z" fill="#141414"/>
<path d="M22 84C20.5 47.5 59.5 52.2281 76.5 59C67.8862 59 70.3082 65.6998 73 68.5C43.3902 50.4061 25.3648 72.5836 22 84Z" fill="#141414"/>
<path d="M78.5989 52.2281C67.2933 40.8548 83.3096 28.9646 92.7309 24.4411C13.0535 9.44905 9.28495 53.5205 17.3604 77.4303C14.6686 45.3783 57.0645 47.2739 78.5989 52.2281Z" stroke="#141414" stroke-width="1.8" stroke-linejoin="round"/>
<path d="M22 84C20.5 47.5 59.5 52.2281 76.5 59C67.8862 59 70.3082 65.6998 73 68.5C43.3902 50.4061 25.3648 72.5836 22 84Z" stroke="#141414" stroke-width="1.8" stroke-linejoin="round"/>
</svg>
